<svg enable-background="new 0 0 849.7 226" viewBox="0 0 849.7 226" xmlns="http://www.w3.org/2000/svg"><path d="m126.7 65.1c3.3-6.6 6.2-14 9.2-23.9 3.5-11.3 6.4-30.3 1.9-37.5-1.5-2.5-3.6-3.3-5-3.5-.4-.2-.8-.2-1.2-.2-6.1 0-13.3 6.6-30.5 38.9-6.8-3.9-13.9-5.9-21-5.9-7.2 0-14.2 2-21.1 5.9-17.2-32.3-24.4-38.9-30.5-38.9-.4 0-.8 0-1.2.1-1.4.2-3.5 1-5 3.5-4.4 7.2-1.5 26.3 1.9 37.5 3.1 9.9 5.9 17.3 9.2 23.9-12.1 19.2-19.3 43.6-19.3 65.6 0 21.5 7 42.4 19.2 57.3 8.9 10.9 24.2 23.8 46.6 23.8s37.7-13 46.6-23.8c12.2-14.9 19.2-35.8 19.2-57.3.2-22-7-46.4-19-65.5z" fill="#fff"/><path d="m359.6 171.8v-21.5h-13.4c-16.6 0-22.8 4.5-22.8 16.6 0 10 4.3 14.7 13.6 14.7 10 0 15.1-4 22.6-9.8zm2.5 21.8v-6.5c-13.4 12.5-23.7 13.9-34.1 13.9-20.2 0-31.8-12.4-31.8-33.5 0-23.5 15.3-34.9 47-34.9h16.5v-6c0-13.3-4.8-17.7-19.1-17.7-8.2 0-18 .7-29.2 3.3-2.1.5-4-1.1-4-3.2v-13.4c0-2.3 1.6-4.3 3.8-4.8 7-1.6 18.4-3.7 35.8-3.7 29.6 0 40 10.1 40 38.1v68.3c0 2.3-1.8 4.1-4.1 4.1h-16.6c-2.4.1-4.2-1.8-4.2-4zm257.6-21.8v-21.5h-13.4c-16.6 0-22.8 4.5-22.8 16.6 0 10 4.3 14.7 13.6 14.7 10 0 15.1-4 22.6-9.8zm2.4 21.8v-6.5c-13.4 12.5-23.7 13.9-34.1 13.9-20.2 0-31.8-12.4-31.8-33.5 0-23.5 15.3-34.9 47-34.9h16.5v-6c0-13.3-5-17.7-19.9-17.7-8.5 0-19.4.9-30.8 3.6-2.1.5-4-1.1-4-3.2v-13.5c0-2.3 1.6-4.3 3.8-4.8 7.2-1.7 19.5-4 37.3-4 30.2 0 40.8 10.1 40.8 38.1v68.3c0 2.3-1.8 4.1-4.1 4.1h-16.6c-2.3.2-4.1-1.7-4.1-3.9zm201.8 7.3c-26.3 0-37.6-9.8-37.6-37.8v-95c0-2.3 1.8-4.1 4.1-4.1h19.1c2.3 0 4.1 1.8 4.1 4.1v22.3h30.4c2.3 0 4.1 1.8 4.1 4.1v14.2c0 2.3-1.8 4.1-4.1 4.1h-30.5v50c0 10.9 4.7 15.9 15 15.9 7.9 0 12.9-.4 17.3-.9 2.1-.2 3.9 1.4 3.9 3.5v13.2c0 2.4-1.7 4.4-4.1 4.8-8.1 1.3-12.6 1.6-21.7 1.6zm-129.4-106.4v6.3c10.5-8.6 21.8-13.6 35.5-13.6 21.7 0 33.3 9.7 33.4 33.2l.3 73.2c0 2.3-1.8 4.1-4.1 4.1h-19.3c-2.3 0-4.1-1.8-4.1-4.1v-65.1c0-13.6-4.6-18-15.8-18-8.3 0-15.1 2.8-23.4 9v74.1c0 2.3-1.8 4.1-4.1 4.1h-19.1c-2.3 0-4.1-1.8-4.1-4.1v-99.1c0-2.3 1.8-4.1 4.1-4.1h16.6c2.3 0 4.1 1.8 4.1 4.1zm-182.9 99.1v-142.4c0-2.3 1.8-4.1 4.1-4.1h19.1c2.3 0 4.1 1.8 4.1 4.1v142.4c0 2.3-1.8 4.1-4.1 4.1h-19.1c-2.3 0-4.1-1.9-4.1-4.1zm-51.2 0v-142.4c0-2.3 1.8-4.1 4.1-4.1h19.1c2.3 0 4.1 1.8 4.1 4.1v142.4c0 2.3-1.8 4.1-4.1 4.1h-19.1c-2.3 0-4.1-1.9-4.1-4.1zm-50.7 0v-99.1c0-2.3 1.8-4.1 4.1-4.1h19.1c2.3 0 4.1 1.8 4.1 4.1v99.1c0 2.3-1.8 4.1-4.1 4.1h-19.1c-2.3 0-4.1-1.9-4.1-4.1zm-.5-124.7v-17.7c0-2.3 1.8-4.1 4.1-4.1h20.1c2.3 0 4.1 1.8 4.1 4.1v17.7c0 2.3-1.8 4.1-4.1 4.1h-20.1c-2.3 0-4.1-1.9-4.1-4.1zm-105.4-17.2-43.3 142.5c-.6 2.1-2.5 3.5-4.7 3.5h-26.2c-2.2 0-4.1-1.4-4.7-3.5l-43.3-142.5c-.7-2.3 1-4.6 3.4-4.6h21.9c2.2 0 4.2 1.5 4.7 3.7l31.4 119.4 31.4-119.4c.6-2.2 2.5-3.7 4.7-3.7h21.1c2.6 0 4.3 2.3 3.6 4.6zm-251.6-25.2c8.5-4.9 17.9-7.7 27.9-7.7s19.4 2.8 27.9 7.7c-2.1 3.7-4.4 7.8-6.8 12.4-6.9-3.9-14-5.9-21.1-5.9-7.2 0-14.2 2-21.1 5.9-2.5-4.7-4.7-8.8-6.8-12.4zm81 23c-2.1 6-4.2 11-6.5 15.6 12.1 19.2 19.3 43.6 19.3 65.6 0 21.5-7 42.4-19.2 57.3-8.9 10.9-24.2 23.8-46.6 23.8s-37.7-13-46.6-23.8c-12.2-14.9-19.2-35.8-19.2-57.3 0-22 7.2-46.4 19.3-65.6-2.3-4.6-4.4-9.6-6.5-15.6-17.2 22.5-27.2 53.8-27.2 81.2 0 27.8 10 51.2 22.5 66.3 14 17.1 33.5 29 57.6 29s43.6-12 57.6-29c12.4-15.2 22.5-38.5 22.5-66.3-.1-27.4-10.1-58.7-27-81.2z" fill="#00917e"/><path d="m98.4 124.7c1.6-2.1-.9-3.7-1.7-4-.2-.1-.4-.4-.3-.7 1.8-4.6 6-7 9.1-5 2.5 1.6 3.1 7.4 0 13.3-2.9 5.6-9.1 7.8-11.7 6.1-1.7-1.1-1.9-3.4-.3-8.7.2-.6.5-.8 1.1-.6.5.2 2.6 1.1 3.8-.4zm35.8 35.8-29 .1c.2 1.1.3 2.2.2 3.4l28.8.1c1 0 1.8-.9 1.8-1.8 0-1-.8-1.8-1.8-1.8zm4.6-7.2c0 .9-.7 1.8-1.7 1.8l-32.5 1.7c-2-4.9-6.9-4.3-6.9-8.5 0-2.2 1.1-3.2 2.3-4.5 4.7-5.5 12.7-13.2 13.5-24.6.5-7.1-1.3-16.5-7-17.7-10.8-2.2-21.7 22.7-21.7 38.5 0 6.3-.2 8.4 2.3 12 1.3 1.9 3 4.3 2.8 6.7-.3 3.2-3.3 4.1-4.8 5.6-4.5 4.4.1 11.6 8.5 11.6 5.5 0 10.1-2.9 11.4-8.1l25.5 1.4c1 .1 1.7.9 1.7 1.8 0 1-.9 1.7-1.9 1.6l-20.7-1.3c-5.8 10.1-22.6 19.8-29.6 19.8-6.9 0-23.8-9.8-29.6-19.8l-20.7 1.3c-1 .1-1.8-.7-1.9-1.6s.7-1.8 1.7-1.8l25.5-1.4c1.3 5.1 5.9 8.1 11.4 8.1 8.4 0 13.1-7.2 8.5-11.6-1.5-1.5-4.5-2.4-4.8-5.6-.2-2.5 1.5-4.9 2.8-6.7 2.5-3.6 2.3-5.7 2.3-12 0-15.7-10.9-40.7-21.7-38.5-5.7 1.2-7.5 10.6-7 17.7.9 11.3 8.8 19 13.5 24.6 1.1 1.3 2.3 2.3 2.3 4.5 0 4.2-4.9 3.5-6.9 8.5l-32.4-1.7c-1-.1-1.7-.9-1.7-1.8 0-1 .9-1.7 1.9-1.6l22.6 1.2c2.5-15-5.2-34.4-3.7-46.8 1.2-10.3 8.5-18.6 13.9-22.5.7-.5.9-1.2.7-1.9-1.9-6.9-4.3-18.2-10.3-33.2-6.1-15.1-11.4-30.1-14.8-29.7-3.5.4-1 15 6.1 33.4s14.6 26.6 12.6 27.7c-2.1 1.1-5.4-3.9-9.5-10.9-4.8-8.2-8.4-16.9-12.1-29.1-4.5-14.4-6.1-34.4-.7-35.3s15.5 14.9 27.6 37.7c11.8 22.3 15.8 35.5 15.8 35.5.2.5.5 1.2 1.5 1 2.2-.4 4.6-.6 7.1-.6s5 .2 7.1.6c1 .2 1.3-.5 1.5-1 0 0 4-13.2 15.8-35.5 12-22.8 22.2-38.6 27.6-37.7s3.9 20.9-.6 35.2c-3.8 12.1-7.3 20.8-12.1 29.1-4.1 6.9-7.4 12-9.5 10.9-2-1.1 5.5-9.2 12.6-27.7 7.1-18.4 9.5-33 6.1-33.4-3.5-.4-8.8 14.6-14.8 29.7-6 15-8.3 26.3-10.3 33.2-.2.7 0 1.4.7 1.9 5.4 3.9 12.7 12.2 13.9 22.5 1.5 12.4-6.2 31.7-3.7 46.8l22.6-1.2c1 0 1.8.7 1.9 1.7zm-58.7 23.3c-1.9 2.1-5.1 4.4-8.6 5.4 2.5 2.4 5.5 3.7 8.6 3.7s6.2-1.2 8.6-3.7c-3.5-1-6.7-3.3-8.6-5.4zm-16.8-55.9c.2-.1.4-.4.3-.7-1.8-4.6-6-7-9.1-5-2.5 1.6-3.1 7.4 0 13.3 2.9 5.6 9.1 7.8 11.7 6.1 1.7-1.1 1.9-3.4.3-8.7-.2-.6-.5-.8-1.1-.6-.4.1-2.5 1-3.7-.5-1.6-2 .9-3.6 1.6-3.9zm-8.4 39.9-29-.1c-1 0-1.8.9-1.8 1.8 0 1 .8 1.8 1.8 1.8l28.8-.1c-.1-1.2 0-2.3.2-3.4z" fill="#1a1a18"/></svg>